<?xml version="1.0" encoding="utf-8"?>
<!-- Generator: Adobe Illustrator 27.3.1, SVG Export Plug-In . SVG Version: 6.00 Build 0)  -->
<svg version="1.1" id="Layer_1" xmlns="http://www.w3.org/2000/svg" xmlns:xlink="http://www.w3.org/1999/xlink" x="0px" y="0px"
	 viewBox="0 0 800 239.6" style="enable-background:new 0 0 800 239.6;" xml:space="preserve">
<style type="text/css">
	.st0{fill:#A6A6A6;}
	.st1{fill:#FFFFFF;stroke:#FFFFFF;stroke-width:1.1852;stroke-miterlimit:59.2593;}
	.st2{fill:#FFFFFF;}
	.st3{fill:url(#SVGID_1_);}
	.st4{fill:url(#SVGID_00000103223036076720412200000011358841952560380331_);}
	.st5{fill:url(#SVGID_00000048478573066103593690000017766773717745217440_);}
	.st6{fill:url(#SVGID_00000080903084784487124600000008905639093542817976_);}
	.st7{opacity:0.2;enable-background:new    ;}
	.st8{opacity:0.12;enable-background:new    ;}
	.st9{opacity:0.25;fill:#FFFFFF;enable-background:new    ;}
</style>
<path d="M770.4,237.2H29.6C13,237.2,0,224.1,0,207.5V29.8C0,13.2,13,0.1,29.6,0.1h740.7c16.6,0,29.6,13,29.6,29.6v177.8
	C800,224.1,787,237.2,770.4,237.2z"/>
<path class="st0" d="M770.4,4.9c13.6,0,24.9,11.3,24.9,24.9v177.8c0,13.6-11.3,24.9-24.9,24.9H29.6c-13.6,0-24.9-11.3-24.9-24.9
	V29.8C4.7,16.1,16,4.9,29.6,4.9H770.4 M770.4,0.1H29.6C13,0.1,0,13.8,0,29.8v177.8c0,16.6,13,29.6,29.6,29.6h740.7
	c16.6,0,29.6-13,29.6-29.6V29.8C800,13.8,787,0.1,770.4,0.1z"/>
<path class="st1" d="M280.9,60.6c0,4.7-1.2,8.9-4.1,11.9c-3.6,3.6-7.7,5.3-13,5.3s-9.5-1.8-13-5.3c-3.6-3.6-5.3-7.7-5.3-13
	s1.8-9.5,5.3-13c3.6-3.6,7.7-5.3,13-5.3c2.4,0,4.7,0.6,7.1,1.8c2.4,1.2,4.1,2.4,5.3,4.1l-3,3c-2.4-3-5.3-4.1-9.5-4.1
	c-3.6,0-7.1,1.2-9.5,4.1c-3,2.4-4.1,5.9-4.1,10.1s1.2,7.7,4.1,10.1s5.9,4.1,9.5,4.1c4.1,0,7.1-1.2,10.1-4.1c1.8-1.8,3-4.1,3-7.1h-13
	v-4.7h17.2L280.9,60.6L280.9,60.6z M308.1,45.8h-16V57H307v4.1h-14.8v11.3h16v4.7h-20.7V41.6h20.7V45.8z M327.7,77.2H323V45.8h-10.1
	v-4.1h24.9v4.1h-10.1V77.2z M355,77.2V41.6h4.7v35.6H355z M379.9,77.2h-4.7V45.8H365v-4.1h24.3v4.1h-10.1v31.4H379.9z M436.1,72.4
	c-3.6,3.6-7.7,5.3-13,5.3c-5.3,0-9.5-1.8-13-5.3s-5.3-7.7-5.3-13s1.8-9.5,5.3-13s7.7-5.3,13-5.3c5.3,0,9.5,1.8,13,5.3
	c3.6,3.6,5.3,7.7,5.3,13S439.7,68.9,436.1,72.4z M413.6,69.5c2.4,2.4,5.9,4.1,9.5,4.1s7.1-1.2,9.5-4.1c2.4-2.4,4.1-5.9,4.1-10.1
	s-1.2-7.7-4.1-10.1c-2.4-2.4-5.9-4.1-9.5-4.1s-7.1,1.2-9.5,4.1c-2.4,2.4-4.1,5.9-4.1,10.1S410.7,67.1,413.6,69.5z M448,77.2V41.6
	h5.3l17.2,27.9V41.6h4.7v35.6h-4.7l-18.4-29v29H448L448,77.2z"/>
<path class="st2" d="M403.6,129.3c-14.2,0-25.5,10.7-25.5,25.5c0,14.2,11.3,25.5,25.5,25.5s25.5-10.7,25.5-25.5
	C429,139.4,417.8,129.3,403.6,129.3z M403.6,169.6c-7.7,0-14.2-6.5-14.2-15.4s6.5-15.4,14.2-15.4c7.7,0,14.2,5.9,14.2,15.4
	C417.8,163.1,411.3,169.6,403.6,169.6z M348.4,129.3c-14.2,0-25.5,10.7-25.5,25.5c0,14.2,11.3,25.5,25.5,25.5s25.5-10.7,25.5-25.5
	C373.9,139.4,362.7,129.3,348.4,129.3z M348.4,169.6c-7.7,0-14.2-6.5-14.2-15.4s6.5-15.4,14.2-15.4c7.7,0,14.2,5.9,14.2,15.4
	C362.7,163.1,356.1,169.6,348.4,169.6z M282.7,137v10.7h25.5c-0.6,5.9-3,10.7-5.9,13.6c-3.6,3.6-9.5,7.7-19.6,7.7
	c-16,0-27.9-12.4-27.9-28.4s12.4-28.4,27.9-28.4c8.3,0,14.8,3.6,19.6,7.7l7.7-7.7c-6.5-5.9-14.8-10.7-26.7-10.7
	c-21.3,0-39.7,17.8-39.7,39.1s18.4,39.1,39.7,39.1c11.9,0,20.1-3.6,27.3-11.3c7.1-7.1,9.5-17.2,9.5-24.9c0-2.4,0-4.7-0.6-6.5H282.7
	L282.7,137z M551.7,145.3c-2.4-5.9-8.3-16-21.3-16c-13,0-23.7,10.1-23.7,25.5c0,14.2,10.7,25.5,24.9,25.5c11.3,0,18.4-7.1,20.7-11.3
	l-8.3-5.9c-3,4.1-6.5,7.1-12.4,7.1c-5.9,0-9.5-2.4-12.4-7.7l33.8-14.2L551.7,145.3L551.7,145.3z M517.3,153.6
	c0-9.5,7.7-14.8,13-14.8c4.1,0,8.3,2.4,9.5,5.3L517.3,153.6L517.3,153.6z M489.5,177.9h11.3v-74.1h-11.3V177.9z M471.7,134.6
	c-3-3-7.7-5.9-13.6-5.9c-12.4,0-24.3,11.3-24.3,25.5c0,14.2,11.3,24.9,24.3,24.9c5.9,0,10.7-3,13-5.9h0.6v3.6
	c0,9.5-5.3,14.8-13.6,14.8c-6.5,0-11.3-4.7-12.4-8.9l-9.5,4.1c3,6.5,10.1,14.8,22.5,14.8c13,0,23.7-7.7,23.7-26.1v-45h-10.7
	L471.7,134.6L471.7,134.6z M458.7,169.6c-7.7,0-14.2-6.5-14.2-15.4c0-8.9,6.5-15.4,14.2-15.4c7.7,0,13.6,6.5,13.6,15.4
	C472.3,163.1,466.4,169.6,458.7,169.6z M603.3,103.8h-26.7v74.1h11.3v-27.9h15.4c12.4,0,24.3-8.9,24.3-23.1S615.7,103.8,603.3,103.8
	z M603.9,139.4h-16v-25.5h16c8.3,0,13,7.1,13,12.4C616.3,132.9,611.6,139.4,603.9,139.4L603.9,139.4z M672,128.7
	c-8.3,0-16.6,3.6-19.6,11.3l10.1,4.1c2.4-4.1,5.9-5.3,10.1-5.3c5.9,0,11.3,3.6,11.9,9.5v0.6c-1.8-1.2-6.5-3-11.3-3
	c-10.7,0-21.3,5.9-21.3,16.6c0,10.1,8.9,16.6,18.4,16.6c7.7,0,11.3-3.6,14.2-7.1h0.6v5.9h10.7v-28.4
	C694.5,136.4,684.4,128.7,672,128.7L672,128.7z M670.8,169.6c-3.6,0-8.9-1.8-8.9-6.5c0-5.9,6.5-7.7,11.9-7.7c4.7,0,7.1,1.2,10.1,2.4
	C682.7,164.9,676.7,169.6,670.8,169.6z M733,130.5l-12.4,32H720l-13-32h-11.9l19.6,45l-11.3,24.9h11.3l30.2-69.9H733L733,130.5z
	 M633.5,177.9h11.3v-74.1h-11.3V177.9z"/>
<g>
	
		<linearGradient id="SVGID_1_" gradientUnits="userSpaceOnUse" x1="-60.4984" y1="611.0701" x2="-77.2814" y2="627.8521" gradientTransform="matrix(5.9259 0 0 5.9259 487.6667 -3569.4443)">
		<stop  offset="0" style="stop-color:#00A0FF"/>
		<stop  offset="7.000001e-03" style="stop-color:#00A1FF"/>
		<stop  offset="0.26" style="stop-color:#00BEFF"/>
		<stop  offset="0.512" style="stop-color:#00D2FF"/>
		<stop  offset="0.76" style="stop-color:#00DFFF"/>
		<stop  offset="1" style="stop-color:#00E3FF"/>
	</linearGradient>
	<path class="st3" d="M61.6,44.6c-1.8,1.8-2.4,4.7-2.4,8.3v131c0,3.6,1.2,6.5,3,8.3l0.6,0.6l73.5-73.5v-1.2L61.6,44.6z"/>
	
		<linearGradient id="SVGID_00000120537756835036058540000017775421507715822003_" gradientUnits="userSpaceOnUse" x1="-48.4598" y1="622.4147" x2="-72.6567" y2="622.4147" gradientTransform="matrix(5.9259 0 0 5.9259 487.6667 -3569.4443)">
		<stop  offset="0" style="stop-color:#FFE000"/>
		<stop  offset="0.409" style="stop-color:#FFBD00"/>
		<stop  offset="0.775" style="stop-color:#FFA500"/>
		<stop  offset="1" style="stop-color:#FF9C00"/>
	</linearGradient>
	<path style="fill:url(#SVGID_00000120537756835036058540000017775421507715822003_);" d="M160,144.1l-24.3-24.3v-1.8L160,93.8
		l0.6,0.6l29,16.6c8.3,4.7,8.3,12.4,0,17.2L160,144.1z"/>
	
		<linearGradient id="SVGID_00000084515634905593021220000009267617729659435414_" gradientUnits="userSpaceOnUse" x1="-57.4782" y1="624.6492" x2="-80.2362" y2="647.4072" gradientTransform="matrix(5.9259 0 0 5.9259 487.6667 -3569.4443)">
		<stop  offset="0" style="stop-color:#FF3A44"/>
		<stop  offset="1" style="stop-color:#C31162"/>
	</linearGradient>
	<path style="fill:url(#SVGID_00000084515634905593021220000009267617729659435414_);" d="M160.6,143.5l-24.9-24.9l-74.1,74.1
		c3,3,7.1,3,12.4,0.6L160.6,143.5"/>
	
		<linearGradient id="SVGID_00000001638359281274394520000018133831770845657770_" gradientUnits="userSpaceOnUse" x1="-75.0322" y1="602.5762" x2="-64.8692" y2="612.7393" gradientTransform="matrix(5.9259 0 0 5.9259 487.6667 -3569.4443)">
		<stop  offset="0" style="stop-color:#32A071"/>
		<stop  offset="6.900000e-02" style="stop-color:#2DA771"/>
		<stop  offset="0.476" style="stop-color:#15CF74"/>
		<stop  offset="0.801" style="stop-color:#06E775"/>
		<stop  offset="1" style="stop-color:#00F076"/>
	</linearGradient>
	<path style="fill:url(#SVGID_00000001638359281274394520000018133831770845657770_);" d="M160.6,93.8L74.1,44.6
		c-5.3-3-9.5-2.4-12.4,0.6l74.1,73.5L160.6,93.8L160.6,93.8z"/>
	<path class="st7" d="M160,142.9l-85.9,48.6c-4.7,3-8.9,2.4-11.9,0l-0.6,0.6l0.6,0.6c3,2.4,7.1,3,11.9,0L160,142.9z"/>
	<path class="st8" d="M61.6,191.5c-1.8-1.8-2.4-4.7-2.4-8.3v0.6c0,3.6,1.2,6.5,3,8.3v-0.6L61.6,191.5L61.6,191.5z M189.6,126.3
		L160,142.9l0.6,0.6l29-16.6c4.1-2.4,5.9-5.3,5.9-8.3C195.6,121.6,193.2,124,189.6,126.3z"/>
	<path class="st9" d="M74.1,45.2l115.6,65.8c3.6,2.4,5.9,4.7,5.9,7.7c0-3-1.8-5.9-5.9-8.3L74.1,44.6c-8.3-4.7-14.8-1.2-14.8,8.3v0.6
		C59.3,44.6,65.8,40.4,74.1,45.2z"/>
</g>
</svg>
